<svg xmlns="http://www.w3.org/2000/svg" viewBox="0 0 920 240" role="img" aria-label="UAPK lockup">
  <g transform="translate(20,20)">
    <!-- Mark -->
    <svg width="200" height="200" viewBox="0 0 512 512" aria-hidden="true">
      <g fill="none" stroke="currentColor" stroke-width="18" stroke-linecap="round" stroke-linejoin="round">
        <path d="M256 48 L404 112 V244
                 C404 344 338 420 256 464
                 C174 420 108 344 108 244 V112 Z"></path>
        <path d="M186 196 L256 160 L326 196"></path>
        <path d="M186 196 L186 268 L256 308 L326 268 L326 196"></path>
        <path d="M256 160 L256 308"></path>
        <path d="M256 228
                 m-22 0
                 a22 22 0 1 0 44 0
                 a22 22 0 1 0 -44 0"></path>
        <path d="M256 250 V294"></path>
      </g>
      <g fill="currentColor">
        <circle cx="256" cy="160" r="10"></circle>
        <circle cx="186" cy="196" r="10"></circle>
        <circle cx="326" cy="196" r="10"></circle>
        <circle cx="186" cy="268" r="10"></circle>
        <circle cx="326" cy="268" r="10"></circle>
        <circle cx="256" cy="308" r="10"></circle>
      </g>
    </svg>

    <!-- Wordmark (uses system font; swap to Inter if you load it) -->
    <g transform="translate(230,34)" fill="currentColor">
      <text x="0" y="78" font-family="Inter, ui-sans-serif, system-ui, -apple-system, Segoe UI, Roboto, Helvetica, Arial" font-size="84" font-weight="800" letter-spacing="2">UAPK</text>
      <text x="2" y="132" font-family="Inter, ui-sans-serif, system-ui, -apple-system, Segoe UI, Roboto, Helvetica, Arial" font-size="34" font-weight="600" opacity="0.78">Agent Interaction Gateway</text>
    </g>
  </g>
</svg>
